<?xml version="1.0" encoding="UTF-8"?>
<svg width="28px" height="28px" viewBox="0 0 28 28" version="1.1" xmlns="http://www.w3.org/2000/svg" xmlns:xlink="http://www.w3.org/1999/xlink">
    <title>PDF</title>
    <g id="--Чат" stroke="none" stroke-width="1" fill="none" fill-rule="evenodd">
        <g id="Чат---огистика-Copy-44" transform="translate(-757, -3541)" fill="#A6B7D4">
            <g id="Group-27" transform="translate(638, 3148)">
                <g id="Group-16-Copy-4" transform="translate(0, 360)">
                    <g id="Group-33-Copy" transform="translate(100, 14.8934)">
                        <g id="Group-32" transform="translate(1, 0)">
                            <g id="Bitmap" transform="translate(0, 0.1066)">
                                <path d="M34.2875772,18 L34.2515598,46 L18.1828575,43.0868138 L18,21.142722 L34.2875772,18 Z M34.9610943,21.1801507 L43.9950162,21.2163161 C45.0959148,21.2207233 45.9862522,22.1140176 45.9870092,23.2149247 L45.9990147,40.6727176 C45.9997715,41.7732767 45.1112051,42.6676487 44.0106644,42.674059 L34.9334633,42.7269313 L34.936,40.098 L43.7145122,40.0980672 L43.7145122,38.4693459 L34.938,38.469 L34.94,37.166 L43.7145122,37.1663688 L43.7145122,35.5376475 L34.942,35.537 L34.944,34.234 L43.7145122,34.2346704 L43.7145122,32.605949 L34.946,32.605 L34.948,31.302 L43.7145122,31.3029719 L43.7145122,29.6742506 L34.95,29.674 L34.952,28.045 L43.7145122,28.0455292 L43.7145122,26.4168079 L34.954,26.416 L34.956,25.113 L43.7145122,25.1138308 L43.7145122,23.4851095 L34.958,23.485 L34.9610943,21.1801507 Z" id="PDF"></path>
                            </g>
                        </g>
                    </g>
                </g>
            </g>
        </g>
    </g>
</svg>