<?xml version="1.0" encoding="UTF-8"?>
<svg width="28px" height="28px" viewBox="0 0 28 28" version="1.1" xmlns="http://www.w3.org/2000/svg" xmlns:xlink="http://www.w3.org/1999/xlink">
    <title>PDF</title>
    <g id="--Чат" stroke="none" stroke-width="1" fill="none" fill-rule="evenodd">
        <g id="Чат---огистика-Copy-44" transform="translate(-682, -3929)" fill="#BA0805">
            <g id="Group-27" transform="translate(638, 3536)">
                <g id="Group-16-Copy-4" transform="translate(0, 360)">
                    <g id="Group-33" transform="translate(25, 14.8934)">
                        <g id="Group-32" transform="translate(1, 0)">
                            <g id="Bitmap" transform="translate(0, 0.1066)">
                                <path d="M34.2875772,18 L34.2515598,46 L18.1828575,43.0868138 L18,21.142722 L34.2875772,18 Z M34.9610943,21.1801507 L43.9950162,21.2163161 C45.0959148,21.2207233 45.9862522,22.1140176 45.9870092,23.2149247 L45.9990147,40.6727176 C45.9997715,41.7732767 45.1112051,42.6676487 44.0106644,42.674059 L34.9334633,42.7269313 L34.936,40.098 L43.7145122,40.0980672 L43.7145122,38.4693459 L34.938,38.469 L34.94,37.166 L43.7145122,37.1663688 L43.7145122,35.5376475 L34.942,35.537 L34.944,34.234 L43.7145122,34.2346704 L43.7145122,32.605949 L34.946,32.605 L34.948,31.302 L43.7145122,31.3029719 L43.7145122,29.6742506 L34.95,29.674 L34.952,28.045 L43.7145122,28.0455292 L43.7145122,26.4168079 L34.954,26.416 L34.956,25.113 L43.7145122,25.1138308 L43.7145122,23.4851095 L34.958,23.485 L34.9610943,21.1801507 Z M20.665034,33.96 L20.665034,29.6774 C20.9677134,29.62588 21.3927524,29.58724 21.9916711,29.58724 C22.5970297,29.58724 23.0285088,29.70316 23.3183081,29.935 C23.6016675,30.15396 23.7819871,30.5146 23.7819871,30.93964 C23.7819871,31.36468 23.6467474,31.73176 23.382708,31.97004 C23.0478287,32.27916 22.5519498,32.42728 21.9723511,32.42728 C21.8435514,32.42728 21.7276317,32.42084 21.6374719,32.40152 L21.6374719,33.96 L20.665034,33.96 Z M21.6374719,30.36648 L21.6374719,31.64804 C21.7211917,31.66736 21.8177915,31.6738 21.9659111,31.6738 C22.48755,31.6738 22.8095493,31.40976 22.8095493,30.97184 C22.8095493,30.57256 22.5326299,30.33428 22.036751,30.33428 C21.8435514,30.33428 21.7083117,30.34716 21.6374719,30.36648 Z M24.4066657,33.94068 L24.4066657,29.68384 C24.7673049,29.62588 25.2374238,29.58724 25.7268627,29.58724 C26.5576209,29.58724 27.0985797,29.7418 27.5107387,30.05092 C27.9615377,30.3858 28.2448971,30.92032 28.2448971,31.68668 C28.2448971,32.51744 27.9422178,33.0906 27.5300587,33.4448 C27.0728197,33.82476 26.3708613,34.00508 25.5207832,34.00508 C25.0120243,34.00508 24.6449452,33.97288 24.4066657,33.94068 Z M25.3855435,30.37936 L25.3855435,33.2194 C25.4692633,33.23872 25.610943,33.23872 25.7268627,33.23872 C26.6220207,33.24516 27.2080594,32.75572 27.2080594,31.71888 C27.2080594,30.81728 26.6799806,30.34072 25.8299025,30.34072 C25.617383,30.34072 25.4692633,30.36004 25.3855435,30.37936 Z M28.8953357,33.96 L29.8742135,33.96 L29.8742135,32.21476 L31.43269,32.21476 L31.43269,31.4162 L29.8742135,31.4162 L29.8742135,30.42444 L31.5421697,30.42444 L31.5421697,29.61944 L28.8953357,29.61944 L28.8953357,33.96 Z" id="PDF"></path>
                            </g>
                        </g>
                    </g>
                </g>
            </g>
        </g>
    </g>
</svg>