<?xml version="1.0" encoding="UTF-8"?>
<svg width="18px" height="16px" viewBox="0 0 18 16" version="1.1" xmlns="http://www.w3.org/2000/svg" xmlns:xlink="http://www.w3.org/1999/xlink">
    <title>Fill 1</title>
    <g id="--Чат" stroke="none" stroke-width="1" fill="none" fill-rule="evenodd">
        <g id="Чат---огистика-Copy-44" transform="translate(-678, -3277)" fill="#A6B7D4">
            <g id="Group-27" transform="translate(638, 3148)">
                <g id="Group-16-Copy" transform="translate(0, 90)">
                    <path d="M40,50.9666004 C40,51.7149474 40.0715486,52.1901089 40.3739142,52.8202409 C40.5226346,53.1301752 40.7050226,53.4120548 40.9282845,53.6645713 L41.1609217,53.9154235 C41.4742387,54.2252053 41.8785057,54.502482 42.2866232,54.6719087 C42.5214907,54.7694106 42.7262358,54.849582 43.0002653,54.9080065 C44.1043487,55.14344 45.1617048,54.9151922 45.9988969,54.3580663 C46.3532199,54.1222769 46.3629918,54.0612459 46.5946968,53.8659811 C46.8697263,53.6341981 47.6441011,52.831999 47.9819004,52.4903391 C48.0475208,52.4239595 48.1036337,52.3866108 48.1720131,52.3178178 C50.2753636,50.2021499 52.4257465,48.1331383 54.5351879,46.0236868 C54.90052,45.6583513 55.211322,45.2423092 55.3409426,44.7227761 C55.5747525,43.7856314 55.3931915,42.898902 54.7761734,42.1650925 C54.5820848,41.9342687 54.3154918,41.7039669 54.0445569,41.5670894 C53.2937694,41.1877859 52.6029352,41.0896976 51.7873442,41.3591175 C51.0840299,41.5914462 50.6595005,42.0943201 50.1577994,42.596028 L44.9083816,47.8454458 C44.6977184,48.0561021 44.5241667,48.1529024 44.5241667,48.5145772 C44.5241667,48.8078691 44.8174994,49.015336 45.0940066,49.015336 C45.3853801,49.015336 45.5887898,48.7364053 45.7458618,48.5793231 L51.2283981,43.096797 C51.4048207,42.9203744 51.59674,42.7014578 51.8099792,42.5732405 C51.9869102,42.4668514 52.1858728,42.3915608 52.3962682,42.3479415 C53.018357,42.2189344 53.746601,42.5304822 54.072554,43.0759279 C54.419776,43.6569633 54.4418653,44.4064322 54.0067879,44.9599856 C53.8344869,45.1792038 53.5883392,45.3991677 53.3868785,45.6006284 L50.126728,48.8159124 C49.8941857,49.0102891 49.0456286,49.8892973 48.7938883,50.1423222 C48.7352503,50.2012483 48.6900075,50.2275643 48.6295154,50.2887682 L46.0998594,52.8013106 C45.7750114,53.1261688 45.4603114,53.4257246 45.0309216,53.6318255 C44.1420093,54.058497 43.0116709,53.9417022 42.2322593,53.3621209 C42.1302731,53.2862846 41.9529456,53.1467871 41.8745638,53.0463635 C41.6766586,52.7928098 41.6616127,52.8488515 41.4558203,52.4808486 C41.1372495,51.9111815 41.0214919,51.1744198 41.1784487,50.5046105 C41.3964907,49.5741059 42.0010627,49.1123159 42.6462982,48.4670837 L43.1641773,47.9488962 C43.2298011,47.8825233 43.2859106,47.845178 43.35429,47.7763851 C43.5909065,47.5383959 43.8163105,47.3143375 44.0536184,47.0770296 L44.7608306,46.3855412 C44.9723411,46.2087356 45.9019712,45.2355811 46.1599482,44.9872744 L46.3416143,44.8235827 C46.6280663,44.5366494 47.4769115,43.6606409 47.6547373,43.5119951 C47.8746843,43.3281495 48.0725115,43.1099312 48.2756059,42.906847 C48.5077245,42.6747284 48.9248546,42.2259981 49.1597322,42.0296589 C49.6027851,41.659307 49.9103264,41.2088109 50.4296969,40.8648732 C50.7357876,40.662172 50.9822979,40.5337343 51.3599134,40.3963857 C51.7522834,40.2536613 52.2051454,40.191488 52.6400398,40.191488 C53.7776283,40.191488 54.7410177,40.7293142 55.3122439,41.3009404 C56.0008851,41.9900833 56.4562283,42.9354508 56.4562283,43.9386022 C56.4562283,44.7549253 56.3059284,45.3132647 55.9668073,45.9357466 C55.8255404,46.1950726 55.6427557,46.4559204 55.433045,46.6625298 C55.3784811,46.7162768 55.3606965,46.7488023 55.312454,46.800963 C55.2687568,46.8481955 55.2288931,46.8840901 55.1827283,46.9302481 L49.6138619,52.4991213 C49.3816078,52.7313754 49.2037446,52.8220373 49.2037446,53.1941551 C49.2037446,53.4911857 49.4951453,53.6949207 49.7735845,53.6949207 C50.064958,53.6949207 50.2683677,53.4159832 50.4254397,53.258901 C52.3738027,51.3105482 54.3110143,49.3507965 56.2706778,47.413829 C56.4993188,47.1878386 56.6925939,46.9182188 56.87084,46.6498294 L57.0679012,46.3115793 C57.4068325,45.7439222 57.6477129,44.8253011 57.6477129,44.1630809 C57.6477129,43.631915 57.6234713,43.2223265 57.4959827,42.7261706 C57.328383,42.073912 56.9845504,41.3351335 56.5297563,40.8259416 L56.1583605,40.4202815 C55.4016245,39.663471 54.1481395,39 52.657316,39 C51.4993229,39 50.3629682,39.4271528 49.5544375,40.1104828 C49.4817738,40.1718765 49.4108353,40.2424387 49.3418898,40.295091 C49.1195906,40.4648634 48.671406,40.9758449 48.3707046,41.2406415 C48.1672001,41.4198502 47.9838799,41.6272086 47.7921029,41.8189754 C47.5376341,42.073451 47.2854837,42.3456638 47.0238969,42.5876119 C46.5588429,43.017761 46.1163933,43.4766868 45.6681613,43.9256476 C45.6344766,43.9594035 45.6085912,43.9896105 45.5724186,44.0198447 C45.5235727,44.060671 45.507371,44.0683381 45.4607927,44.1154451 C45.1828043,44.3966129 44.4163947,45.193921 44.1148392,45.4459968 C44.0467174,45.5029334 43.9800869,45.5791933 43.9154834,45.6437969 C43.6086538,45.9506265 42.9800504,46.6153176 42.6643303,46.8792194 C42.4817795,47.0318241 41.7822037,47.7598105 41.6015917,47.9404225 C41.1695615,48.372446 40.8605016,48.6459264 40.5317421,49.1671882 C40.5044296,49.2105092 40.4898244,49.2486748 40.4654472,49.2908434 C40.1992101,49.7514504 40,50.3857413 40,50.9666004" id="Fill-1" transform="translate(48.8239, 47) scale(-1, -1) rotate(-360) translate(-48.8239, -47)"></path>
                </g>
            </g>
        </g>
    </g>
</svg>