<?xml version="1.0" encoding="UTF-8"?>
<svg width="21px" height="22px" viewBox="0 0 21 22" version="1.1" xmlns="http://www.w3.org/2000/svg" xmlns:xlink="http://www.w3.org/1999/xlink">
    <title>123Безымянный-1</title>
    <g id="--Чат" stroke="none" stroke-width="1" fill="none" fill-rule="evenodd">
        <g id="Чат---Логистика-Copy-48" transform="translate(-966, -763)" fill="currentColor">
            <g id="Group-14-Copy-2" transform="translate(612, 128)">
                <g id="Group-20" transform="translate(0, 618)">
                    <g id="123Безымянный-1" transform="translate(354, 17)">
                        <path d="M6.09894074,0.383336014 C7.0875705,-0.0174904829 7.99807104,-0.104726949 9.06657396,0.125139964 C9.22090158,0.158221333 9.38602926,0.208863083 9.53348694,0.259002926 C9.82321402,0.357516409 10.1075535,0.477332338 10.367297,0.637523165 C10.4923822,0.71472785 10.6164834,0.785916009 10.7366668,0.870884365 C10.8868027,0.977174225 11.0195053,1.09423284 11.1615567,1.20679336 C11.232816,1.26343258 11.2868724,1.33261946 11.3559455,1.38877583 C11.373385,1.40280381 11.3765802,1.40305794 11.3942751,1.42036419 C11.5279618,1.55170491 11.7056273,1.76504067 11.8228584,1.91192779 C11.8688117,1.96982495 11.9051856,2.02372592 11.9494073,2.08364341 C12.0885003,2.27164241 12.3054982,2.6363634 12.3927333,2.85170043 C12.4494991,2.99231689 12.5170836,3.13795878 12.5696763,3.28109113 C12.8355672,4.00502483 12.9309242,4.94353952 12.8087851,5.71561179 C12.7670111,5.98081547 12.7227645,6.21770908 12.6414276,6.4646154 C12.5554132,6.72607702 12.4949603,6.87497813 12.3890461,7.11786285 C12.1927016,7.56858141 11.9130396,7.94333417 11.6061034,8.31783916 L11.1472936,8.7692947 C10.9126195,8.9826114 10.6364018,9.18238932 10.3574624,9.33454964 C10.1606258,9.44209745 9.95248473,9.54235807 9.74360245,9.62809517 C8.69990729,10.055726 7.47831621,10.0624986 6.41251642,9.70328588 C6.1906043,9.62858437 6.06526994,9.55789812 5.87702862,9.48018518 C5.77406673,9.43758029 5.67823014,9.37717359 5.58066828,9.32277072 C5.44723076,9.24857112 5.33148193,9.16860913 5.20738081,9.08463188 C4.89675117,8.87457439 4.6608438,8.63643555 4.39788644,8.37146694 L4.11970683,8.03633304 C3.96562835,7.8262565 3.81326269,7.614706 3.69652354,7.38006145 L3.54638142,7.0822783 C3.45372755,6.86969858 3.35936087,6.63783039 3.29670303,6.40846539 C3.15417203,5.8873147 3.09543187,5.47922644 3.09543187,4.88940348 C3.09543187,4.29855765 3.20454121,3.8335824 3.37387307,3.31644696 C3.4237502,3.16453442 3.49084266,3.02289508 3.55007487,2.87677035 C3.59405369,2.76772318 3.65131149,2.66896192 3.70514367,2.56643318 C3.84447949,2.3017187 4.17696463,1.81591749 4.40673078,1.58430343 C4.66205834,1.32660929 4.91666963,1.07694565 5.21768883,0.872898345 C5.28061449,0.830274395 5.33663283,0.789429355 5.40102216,0.7503124 C5.62563742,0.613946257 5.85369076,0.482605535 6.09894074,0.383336014 Z M6.62388988,1.66093725 C6.44714125,1.73247956 6.28278603,1.82713519 6.1209086,1.92541258 C6.07450401,1.95360369 6.03413228,1.9830402 5.98878254,2.01375876 C5.77184173,2.16081312 5.58834652,2.34074262 5.40433511,2.5264596 C5.23874549,2.69338098 4.99912757,3.04349189 4.89870997,3.23426834 C4.85991379,3.30815953 4.8186488,3.37933555 4.7869538,3.4579245 C4.74426589,3.56323478 4.69591318,3.6653125 4.65996735,3.77479399 C4.53793197,4.14748709 4.45929822,4.482589 4.45929822,4.90840428 C4.45929822,5.33348238 4.50163153,5.62758653 4.60435186,6.00317338 C4.64950858,6.1684739 4.71751748,6.33557843 4.78429198,6.488782 L4.89249755,6.70339063 C4.97663001,6.87249606 5.08643805,7.02495788 5.19748051,7.17635744 L5.3979611,7.41788429 C5.58747122,7.60884389 5.75748674,7.78046761 5.98135367,7.93185343 C6.07079182,7.9923748 6.15421056,8.05000242 6.25037733,8.10347715 C6.32068895,8.14268462 6.3897572,8.18621898 6.46396056,8.2169238 C6.59962375,8.27293055 6.68995067,8.32387326 6.84987999,8.37770971 C7.6179887,8.63658987 8.49837427,8.63170896 9.25055244,8.3235207 C9.40109131,8.26173103 9.55109603,8.18947444 9.69295368,8.11196607 C9.89398191,8.00230601 10.0930485,7.85832854 10.2621753,7.70459383 L10.5928338,7.37923542 C10.814039,7.10933431 11.0155879,6.83925463 11.1570909,6.51442735 C11.2334219,6.33938334 11.2769897,6.23207216 11.3389792,6.04364 C11.3975976,5.86569767 11.4294856,5.69497138 11.4595916,5.50384237 C11.5476158,4.94741945 11.4788932,4.27104353 11.2872689,3.74931348 C11.2493659,3.64615977 11.2006586,3.54119746 11.1597483,3.43985692 C11.096879,3.28466618 10.9404913,3.02181629 10.8402487,2.88632774 C10.8083787,2.84314594 10.7821644,2.80430018 10.7490465,2.76257441 C10.6645594,2.65671468 10.5365181,2.50296624 10.4401718,2.40831061 C10.4274193,2.39583821 10.4251166,2.39565506 10.4125481,2.38554528 C10.362768,2.34507407 10.3238102,2.29521194 10.2724545,2.25439276 C10.1700798,2.17327179 10.0744427,2.08890909 9.96624164,2.01230731 C9.87962691,1.95107166 9.79018877,1.89976724 9.7000414,1.84412678 C9.51284747,1.72867923 9.30792751,1.64232938 9.09912479,1.57133193 C8.99285387,1.53519677 8.87384839,1.49869988 8.76262639,1.47485855 C7.99256957,1.30919631 7.3363831,1.37206655 6.62388988,1.66093725 Z M15.7717407,13.8223134 C16.034449,13.261061 16.8306519,13.2898921 17.0641115,13.8363604 C17.1368469,14.0065703 17.1289929,14.1083367 17.1289929,14.3073776 L17.1289929,16.9777627 L19.7665763,16.9777627 C19.9516224,16.9777627 20.0715567,16.9780168 20.2241715,17.050717 C20.4659772,17.1657807 20.6269381,17.4322423 20.625,17.7119823 C20.6225097,18.0461251 20.4227209,18.25995 20.2091798,18.3669959 C20.0607318,18.4414433 19.9236195,18.4346707 19.7491367,18.4346707 L17.1289929,18.4346707 L17.1286092,21.2293146 C17.1267606,21.3609153 17.116262,21.467839 17.0574907,21.589364 C16.7778287,22.1676558 15.9997941,22.1085134 15.7673248,21.5788493 C15.6985071,21.4219177 15.7007306,21.2958311 15.7007306,21.1075844 L15.7007306,18.4346707 L12.961522,18.4345718 C12.8320469,18.4333749 12.7326564,18.4241866 12.6099866,18.3622246 C12.4018268,18.2571927 12.2032588,18.034848 12.204979,17.7029607 C12.2067031,17.3841038 12.4069839,17.1414478 12.6193043,17.0449546 C12.7731523,16.9750117 12.8987171,16.9777627 13.0825487,16.9777627 L15.7007306,16.9777627 L15.7007306,14.2895631 C15.7007306,14.1008081 15.6989991,13.9777329 15.7717407,13.8223134 Z M8.27993787,11.5657743 C8.34063998,11.5655312 8.36226503,11.5750548 8.41804047,11.5750548 C8.64215745,11.5753089 8.86825507,11.5933521 9.09409732,11.6106393 C9.17593244,11.61691 9.26980708,11.6294449 9.35458823,11.6369735 C10.0623352,11.6993879 11.0617713,11.9091976 11.7397901,12.1395727 C11.8157207,12.1653796 11.8833052,12.1884483 11.9609548,12.2147571 C12.3028013,12.3310787 12.6497799,12.4847384 12.9756442,12.6388937 C13.035599,12.6672228 13.1100721,12.7030805 13.1656171,12.7369179 L13.3518778,12.8391925 L13.2417781,13.1608004 C13.1199067,13.5643715 13.0997454,13.8947659 13.0997454,14.324919 L12.8225561,14.324919 C12.7773191,14.26199 12.1890082,13.9789972 12.0943923,13.93563 C12.0450135,13.9130632 11.9966,13.8922627 11.9437582,13.8681839 C11.8889606,13.8431139 11.8383423,13.8245688 11.7832893,13.8020211 C11.2161114,13.5688886 10.5127741,13.382389 9.88096386,13.275108 C9.66544209,13.2385133 8.91494948,13.1379859 8.69574049,13.1399998 C8.64510349,13.140489 8.63259061,13.1332273 8.59178827,13.1309592 L8.47874258,13.1314674 C8.43451462,13.1299681 8.42542114,13.1219376 8.37528241,13.1219376 L8.04574331,13.1221917 C8.00077417,13.1196885 7.99855063,13.1086656 7.94547832,13.1169312 C7.90911062,13.1226936 7.88599698,13.1224395 7.84620365,13.1221917 L7.62084721,13.1221917 C7.53951037,13.1221917 7.49380005,13.1317152 7.41269365,13.1309592 C7.26401521,13.1299681 6.78629594,13.1755844 6.60395292,13.1991422 C5.72025324,13.3136977 4.95351692,13.4834184 4.13322871,13.8182981 C3.71005166,13.9912781 3.32742156,14.1882987 2.96716393,14.4239343 L2.57912135,14.7089475 L2.17438662,15.0831983 C2.15422525,15.1067498 2.15030758,15.1170357 2.12670189,15.1408413 C2.10189413,15.1659113 2.09622627,15.1777092 2.07461991,15.202525 C1.55756198,15.794597 1.33786094,16.5964915 1.72566062,17.3673185 C1.91291162,17.7395554 2.21172596,18.0817287 2.52924422,18.3424279 L2.71404123,18.4900711 C2.85902623,18.6013673 3.08462557,18.7492582 3.24559268,18.8410182 C4.23300166,19.4042719 5.11153176,19.6494311 6.22647996,19.8416994 C6.35353335,19.8637389 6.48672173,19.8800413 6.61599244,19.8953272 L7.32595055,19.9582498 C7.36207534,19.9582498 7.39156065,19.9562549 7.42646467,19.9617631 C7.49724436,19.9725319 7.57341162,19.9627542 7.64688821,19.9667695 C7.84300847,19.9775573 8.11062469,19.9943426 8.29074416,19.9692727 C8.36078267,19.959495 8.43401635,19.9722841 8.50479603,19.9662676 L8.91985747,19.9389486 C9.12529544,19.9163819 9.29215462,19.9048571 9.51455879,19.8732687 L10.0829762,19.7810259 C10.1404769,19.771496 10.2105154,19.7504414 10.2650701,19.7456891 L10.5000121,20.0189106 C10.763449,20.3350038 11.2330589,20.645341 11.6046335,20.8112752 C11.6574629,20.8348521 11.8201553,20.8899919 11.8520946,20.9130669 L11.8223602,20.9275968 C11.8154778,20.9303541 11.8022175,20.9343694 11.7963192,20.9363706 L11.6316649,20.9895156 C11.555728,21.0145855 11.4859387,21.0331306 11.410251,21.0556974 L10.9578315,21.1775146 C10.8755044,21.1948208 10.8035102,21.2163774 10.7179816,21.2336646 C10.2982488,21.3181437 9.63965023,21.4464794 9.22433966,21.4698022 L8.41878165,21.5234299 L8.13198815,21.5229471 C8.042299,21.5239382 7.98283634,21.5427375 7.86118921,21.5257044 C7.78721435,21.5151644 7.6493422,21.5229471 7.56874654,21.5232012 L7.29376834,21.5119051 C7.2133969,21.5006345 7.112889,21.5053867 7.02392235,21.495374 C6.94528241,21.4865874 6.84134888,21.4770576 6.76196776,21.4707933 C6.4112832,21.442966 6.06871426,21.3930994 5.74212743,21.3351832 C5.15921649,21.2316633 4.47334366,21.0569426 3.91794362,20.8521393 C2.78308942,20.4337651 1.82320379,19.8712675 1.06458933,19.0671176 L0.925994681,18.907937 C0.90731567,18.8883817 0.907066534,18.8838772 0.890860204,18.8640678 L0.796973107,18.7477652 C0.52617417,18.3765194 0.326615821,18.0691937 0.179419738,17.6179923 C0.11183523,17.4109208 0.00813215448,16.9908059 0.00911624372,16.7569364 C0.00936538024,16.6970189 0.000770170411,16.6764725 0.000271897378,16.6245665 C-0.00440564072,16.2382889 0.0516313903,15.8923672 0.140348904,15.5993236 C0.305482816,15.0548692 0.652231019,14.4509992 1.06042252,14.0353823 C1.09114105,14.0040672 1.10219648,13.9902679 1.13021188,13.9561764 C1.17592221,13.9002805 1.22825333,13.8646896 1.27715883,13.814302 C1.37325701,13.7150324 1.47400159,13.6285584 1.5804078,13.5398035 C2.78234824,12.5393764 4.44212685,11.9392738 6.1053311,11.7001312 C6.25670644,11.6783205 6.75852967,11.6119036 6.88386403,11.6101565 C7.01041292,11.6083903 7.30481754,11.5745529 7.42130755,11.5745529 C7.52499817,11.5742987 7.60266648,11.5657743 7.69898888,11.5657743 L8.27993787,11.5657743 Z" id="Combined-Shape"></path>
                    </g>
                </g>
            </g>
        </g>
    </g>
</svg>
