<?xml version="1.0" encoding="UTF-8"?>
<svg width="54px" height="43px" viewBox="0 0 54 43" version="1.1" xmlns="http://www.w3.org/2000/svg" xmlns:xlink="http://www.w3.org/1999/xlink">
    <title>Combined Shape</title>
    <g id="--Чат" stroke="none" stroke-width="1" fill="none" fill-rule="evenodd">
        <g id="Чат---Логистика-Copy-48" transform="translate(-1266, -1337)" fill="#FFFFFF">
            <g id="Group-14-Copy-3" transform="translate(1093, 1229)">
                <g id="ILPMshiNwwGwwjrEUV8tIbQaBGeoLqlfluRQmFmZ" transform="translate(140, 70)">
                    <path d="M86.9409746,76.9255483 L86.948906,79.9885696 C86.9212062,80.1316905 86.8594099,80.2592157 86.7635173,80.3711451 C86.6676246,80.4830746 86.5332897,80.561107 86.3605127,80.6052424 L33.6681163,80.6092903 C33.5196004,80.5739998 33.3881557,80.5111839 33.2737824,80.4208424 C33.159409,80.3305009 33.0681482,80.2167494 33,80.0795879 L33,76.9255483 L86.9409746,76.9255483 Z M86.9430787,48.7270455 L86.9379609,76.3207073 L33.0101273,76.3244464 L33.0101273,48.7288209 L86.9430787,48.7270455 Z M60.3037129,50.6542744 C53.9510846,50.6542744 48.8012618,55.8029884 48.8012618,62.1542489 C48.8012618,68.5055095 53.9510846,73.6542235 60.3037129,73.6542235 C66.6563413,73.6542235 71.8061641,68.5055095 71.8061641,62.1542489 C71.8061641,55.8029884 66.6563413,50.6542744 60.3037129,50.6542744 Z M60.3037129,53.1076023 C65.3575817,53.1076023 69.4545519,57.2036903 69.4545519,62.2564709 C69.4545519,67.3092516 65.3575817,71.4053396 60.3037129,71.4053396 C55.2498441,71.4053396 51.152874,67.3092516 51.152874,62.2564709 C51.152874,57.2036903 55.2498441,53.1076023 60.3037129,53.1076023 Z M71.9595301,50.5520524 C71.2536825,50.5520524 70.68148,51.1241317 70.68148,51.8298273 C70.68148,52.5355229 71.2536825,53.1076023 71.9595301,53.1076023 C72.6653777,53.1076023 73.2375803,52.5355229 73.2375803,51.8298273 C73.2375803,51.1241317 72.6653777,50.5520524 71.9595301,50.5520524 Z M67.9682936,38 C68.0988689,38 68.2051838,38.0179661 68.2872383,38.0538983 C68.3692928,38.0898305 68.4533414,38.1509563 68.5393841,38.2372758 L74.1161655,44.3198388 L86.3605127,44.3207795 C86.5332897,44.3649149 86.6676246,44.4429473 86.7635173,44.5548767 C86.8594099,44.6668061 86.9212062,44.7943313 86.948906,44.9374523 L86.9409746,48.0004735 L33,48.0004735 L33,44.846434 C33.0681482,44.7092725 33.159409,44.595521 33.2737824,44.5051795 C33.3881557,44.414838 33.5196004,44.352022 33.6681163,44.3167315 L46.5323615,44.3177198 L52.2211857,38.2433616 C52.3030759,38.152985 52.3851417,38.0898305 52.4673831,38.0538983 C52.5496244,38.0179661 52.6565712,38 52.7882235,38 Z M43.4847332,41.1531592 L43.7075704,41.356529 L43.7075704,43.6940664 L38.6917619,43.71419 L38.6738107,41.356529 L38.8897635,41.1531592 L43.4847332,41.1531592 Z" id="Combined-Shape"></path>
                </g>
            </g>
        </g>
    </g>
</svg>