<?xml version="1.0" encoding="UTF-8"?>
<svg width="20px" height="20px" viewBox="0 0 20 20" version="1.1" xmlns="http://www.w3.org/2000/svg" xmlns:xlink="http://www.w3.org/1999/xlink">
    <title>Combined Shape</title>
    <g id="--Чат" stroke="none" stroke-width="1" fill="none" fill-rule="evenodd">
        <g id="Чат---огистика-Copy-44" transform="translate(-608, -30)" fill="currentColor">
            <g id="Group-12" transform="translate(244, 25)">
                <g id="Кнопка-в-корзину" transform="translate(364, 5)">
                    <path d="M10,0 C10.502077,-9.2230057e-17 10.9090909,0.407013864 10.9090909,0.909090909 L10.909,9.09 L19.0909091,9.09090909 C19.5929861,9.09090909 20,9.49792295 20,10 C20,10.502077 19.5929861,10.9090909 19.0909091,10.9090909 L10.909,10.909 L10.9090909,19.0909091 C10.9090909,19.5929861 10.502077,20 10,20 C9.49792295,20 9.09090909,19.5929861 9.09090909,19.0909091 L9.09,10.909 L0.909090909,10.9090909 C0.407013864,10.9090909 3.55271368e-15,10.502077 3.55271368e-15,10 C3.55271368e-15,9.49792295 0.407013864,9.09090909 0.909090909,9.09090909 L9.09,9.09 L9.09090909,0.909090909 C9.09090909,0.407013864 9.49792295,6.14867046e-17 10,0 Z" id="Combined-Shape"></path>
                </g>
            </g>
        </g>
    </g>
</svg>
