<?xml version="1.0" encoding="UTF-8"?>
<svg width="17px" height="18px" viewBox="0 0 17 18" version="1.1" xmlns="http://www.w3.org/2000/svg" xmlns:xlink="http://www.w3.org/1999/xlink">
    <title>Combined Shape</title>
    <g id="--Чат" stroke="none" stroke-width="1" fill="none" fill-rule="evenodd" opacity="0.466355097" stroke-linecap="round" stroke-linejoin="round">
        <g id="Чат---Логистика-Copy-47" transform="translate(-44, -767)" stroke="currentColor" stroke-width="1.5">
            <g id="Group-14-Copy" transform="translate(20, 128)">
                <g id="Group-31" transform="translate(0, 300)">
                    <g id="Group-36" transform="translate(25, 340)">
                        <path d="M0,3.19998848 L14.3999626,3.19998848 M1.59999904,3.19998848 L1.59999904,14.3999722 C1.59999904,15.2836499 2.31633958,16 3.19998848,16 L11.2000029,16 C12.0836806,16 12.7999347,15.2836499 12.7999347,14.3999722 L12.7999347,3.19998848 M3.9999928,3.19998848 L3.9999928,1.59998944 C3.9999928,0.716340538 4.71633334,0 5.59998224,0 L8.80000912,0 C9.68368682,0 10.399941,0.716340538 10.399941,1.59998944 L10.399941,3.19998848 M8.79981712,7.20003888 L8.79981712,11.9999784 M5.60014544,7.20003888 L5.60014544,11.9999784" id="Combined-Shape"></path>
                    </g>
                </g>
            </g>
        </g>
    </g>
</svg>
