<?xml version="1.0" encoding="UTF-8"?>
<svg width="25px" height="25px" viewBox="0 0 25 25" version="1.1" xmlns="http://www.w3.org/2000/svg" xmlns:xlink="http://www.w3.org/1999/xlink">
    <title>Group 16</title>
    <g id="--Чат" stroke="none" stroke-width="1" fill="none" fill-rule="evenodd">
        <g id="Чат---огистика-Copy-44" transform="translate(-705, -3521)">
            <g id="Group-27" transform="translate(638, 3148)">
                <g id="Group-16-Copy-4" transform="translate(0, 360)">
                    <g id="Group-33" transform="translate(25, 14.8934)">
                        <g id="Group-32" transform="translate(1, 0)">
                            <g id="Group-16" transform="translate(53.5, 10.6066) rotate(-315) translate(-53.5, -10.6066)translate(46, 3.1066)">
                                <path d="M7.5,-0.5 C9.709139,-0.5 11.709139,0.3954305 13.1568542,1.84314575 C14.6045695,3.290861 15.5,5.290861 15.5,7.5 C15.5,9.709139 14.6045695,11.709139 13.1568542,13.1568542 C11.709139,14.6045695 9.709139,15.5 7.5,15.5 C5.290861,15.5 3.290861,14.6045695 1.84314575,13.1568542 C0.3954305,11.709139 -0.5,9.709139 -0.5,7.5 C-0.5,5.290861 0.3954305,3.290861 1.84314575,1.84314575 C3.290861,0.3954305 5.290861,-0.5 7.5,-0.5 Z" id="Oval-4" stroke="#FFFFFF" fill="currentColor" fill-rule="nonzero"></path>
                                <path d="M7.5,13.9534884 C11.0641632,13.9534884 13.9534884,11.0641632 13.9534884,7.5 C13.9534884,3.93583679 11.0641632,1.04651163 7.5,1.04651163 C3.93583679,1.04651163 1.04651163,3.93583679 1.04651163,7.5 C1.04651163,11.0641632 3.93583679,13.9534884 7.5,13.9534884 Z" id="Path" fill="#FFFFFF" fill-rule="nonzero"></path>
                                <path d="M7.65,3.3 C7.98137085,3.3 8.25,3.56862915 8.25,3.9 L8.25,6.9 L11.25,6.9 C11.5813708,6.9 11.85,7.16862915 11.85,7.5 C11.85,7.83137085 11.5813708,8.1 11.25,8.1 L8.25,8.1 L8.25,11.1 C8.25,11.4313708 7.98137085,11.7 7.65,11.7 C7.31862915,11.7 7.05,11.4313708 7.05,11.1 L7.05,8.099 L4.05,8.1 C3.71862915,8.1 3.45,7.83137085 3.45,7.5 C3.45,7.16862915 3.71862915,6.9 4.05,6.9 L7.05,6.899 L7.05,3.9 C7.05,3.56862915 7.31862915,3.3 7.65,3.3 Z" id="Combined-Shape" fill="currentColor"></path>
                            </g>
                        </g>
                    </g>
                </g>
            </g>
        </g>
    </g>
</svg>
