<?xml version="1.0" encoding="UTF-8"?>
<svg width="15px" height="18px" viewBox="0 0 15 18" version="1.1" xmlns="http://www.w3.org/2000/svg" xmlns:xlink="http://www.w3.org/1999/xlink">
    <title>Frame 34162-4</title>
    <g id="--Чат" stroke="none" stroke-width="1" fill="none" fill-rule="evenodd" stroke-linecap="round" stroke-linejoin="round">
        <g id="Чат---Логистика-Copy-47" transform="translate(-44, -634)" stroke="currentColor" stroke-width="1.5">
            <g id="Group-14-Copy" transform="translate(20, 128)">
                <g id="Group-31" transform="translate(0, 300)">
                    <g id="Group-35" transform="translate(0, 74)">
                        <g id="Group-24" transform="translate(25, 25)">
                            <g id="Frame-34162-4" transform="translate(0, 108)">
                                <path d="M7.2,0 L1.6,0 C1.17565,0 0.76869,0.16857 0.46863,0.46863 C0.16857,0.76869 0,1.17565 0,1.6 L0,14.4 C0,14.8243 0.16857,15.2313 0.46863,15.5314 C0.76869,15.8314 1.17565,16 1.6,16 L11.2,16 C11.6243,16 12.0313,15.8314 12.3314,15.5314 C12.6314,15.2313 12.8,14.8243 12.8,14.4 L12.8,5.6 M7.2,0 L12.8,5.6 M7.2,0 L7.2,5.6 L12.8,5.6" id="Shape"></path>
                            </g>
                        </g>
                    </g>
                </g>
            </g>
        </g>
    </g>
</svg>
