<?xml version="1.0" encoding="UTF-8"?>
<svg width="22px" height="16px" viewBox="0 0 22 16" version="1.1" xmlns="http://www.w3.org/2000/svg" xmlns:xlink="http://www.w3.org/1999/xlink">
    <title>Combined Shape</title>
    <g id="--Чат" stroke="none" stroke-width="1" fill="none" fill-rule="evenodd">
        <g id="Чат---Логистика-Copy-48" transform="translate(-637, -766)" fill="#A6B7D4" fill-rule="nonzero">
            <g id="Group-14-Copy-2" transform="translate(612, 128)">
                <g id="Group-20" transform="translate(0, 618)">
                    <g id="Video" transform="translate(25, 20)">
                        <path d="M14.54544,7.999972 C13.6109084,7.999972 12.7072434,7.5827061 11.999978,6.82542749 C11.3122459,6.08680218 10.8922467,5.10180398 10.8181535,4.05271257 C10.7390603,2.93362129 11.080433,1.90454318 11.7790584,1.15454188 C12.4776971,0.404544592 13.4545087,0 14.54544,0 C15.628638,0 16.6081029,0.411816578 17.3045016,1.15999654 C18.0077003,1.91544982 18.3499664,2.94271461 18.2708998,4.05225924 C18.1949,5.10271065 17.7754341,6.08725551 17.0890353,6.82497416 C16.38357,7.5827061 15.4803716,7.999972 14.54544,7.999972 Z M14.54544,9.45448934 C16.2205036,9.45448934 17.7727674,9.86358192 19.0323651,10.6385805 C20.4463625,11.5081256 21.3959608,12.7899366 21.7768934,14.3454404 C21.8274267,14.5463733 21.8318266,14.7561063 21.7899601,14.9589059 C21.7480935,15.1618389 21.6608936,15.3526385 21.5350272,15.5171716 C21.4166274,15.6685046 21.2652944,15.7906377 21.0923613,15.8742376 C20.9195617,15.9579707 20.7298287,16.000904 20.5376957,15.9999856 L8.55370432,15.9999856 C8.36102467,16.000904 8.17067836,15.9577041 7.99731867,15.8737042 C7.82395899,15.7895711 7.67218594,15.6669046 7.55370615,15.5149049 C7.42802638,15.3502385 7.34123988,15.1591722 7.29982662,14.9562393 C7.25842669,14.753173 7.26348002,14.54344 7.31461326,14.3426404 C7.69734589,12.8058432 8.64551748,11.5312989 10.0564216,10.6572205 C11.3086993,9.88176855 12.9027763,9.45448934 14.54544,9.45448934 Z M5.95493575,9.02505012 C7.10174698,9.02505012 8.13946508,9.2205031 8.93901028,9.61140905 C9.03219678,9.6568623 9.11400996,9.70095555 9.18536983,9.74276881 C9.23756973,9.77339542 9.28128965,9.81654201 9.31258293,9.86832858 C9.34388954,9.92011515 9.36176951,9.97888838 9.3646095,10.0393283 C9.36744949,10.0997682 9.35516952,10.159968 9.32887623,10.2144613 C9.30256961,10.2689545 9.26308969,10.3160211 9.21400978,10.3514077 C7.87946556,11.3050459 6.97629388,12.6132169 6.59084125,14.1614407 C6.58356126,14.189574 6.57720128,14.2182406 6.57220129,14.2469072 C6.55697465,14.3306404 6.51282806,14.4063736 6.44745485,14.4610402 C6.38208163,14.5155734 6.29962845,14.5454519 6.21446861,14.5454519 L1.16903519,14.5454519 C0.993035512,14.54624 0.819194497,14.5067734 0.660885454,14.4298402 C0.502576411,14.352907 0.364013998,14.2406406 0.255856863,14.1018408 C0.141871739,13.9527744 0.0630797497,13.7797081 0.0253760854,13.5958417 C-0.0123275388,13.4119754 -0.00796753344,13.2219891 0.0381300621,13.0400428 C0.353128685,11.7750451 1.13312725,10.7273137 2.29266246,10.0077683 C3.31539392,9.37414282 4.61584487,9.02505012 5.95493575,9.02505012 Z M5.95473575,8.18175834 C4.35519202,8.18175834 2.94883459,6.6944944 2.8183815,4.86676441 C2.75383495,3.93040613 3.04564775,3.06450105 3.63655333,2.42950221 C4.22109893,1.80086337 5.04564408,1.454504 5.95473575,1.454504 C6.86381408,1.454504 7.68199925,1.80269003 8.26971817,2.43495554 C8.86517042,3.07495436 9.15608988,3.93904611 9.08790334,4.86767108 C8.95745025,6.69494773 7.55154616,8.18175834 5.95473575,8.18175834 Z" id="Combined-Shape"></path>
                    </g>
                </g>
            </g>
        </g>
    </g>
</svg>
