<?xml version="1.0" encoding="UTF-8"?>
<svg width="18px" height="18px" viewBox="0 0 18 18" version="1.1" xmlns="http://www.w3.org/2000/svg" xmlns:xlink="http://www.w3.org/1999/xlink">
    <title>Frame 34162-3</title>
    <g id="--Чат" stroke="none" stroke-width="1" fill="none" fill-rule="evenodd" stroke-linecap="round" stroke-linejoin="round">
        <g id="Чат---Логистика-Copy-47" transform="translate(-44, -706)" stroke="#A6B7D4" stroke-width="1.5">
            <g id="Group-14-Copy" transform="translate(20, 128)">
                <g id="Group-31" transform="translate(0, 300)">
                    <g id="Group-35" transform="translate(0, 74)">
                        <g id="Group-24" transform="translate(25, 25)">
                            <g id="Frame-34162-3" transform="translate(0, 180)">
                                <path d="M6.39097272,8.80537174 C6.73645831,9.26777158 7.17725816,9.65028573 7.68342942,9.92719992 C8.18971495,10.2039998 8.74948619,10.3686855 9.32480028,10.4098283 C9.90011436,10.4510855 10.4775999,10.3679998 11.0180568,10.1661713 C11.5585138,9.96445705 12.0493708,9.64857144 12.457142,9.24022873 L14.8707412,6.82422957 C15.603541,6.06468697 16.0090265,5.04756732 15.9998837,3.99176198 C15.9906265,2.93596806 15.5676553,1.92600269 14.8218269,1.17940866 C14.0758843,0.432814636 13.0669704,0.00932906877 12.0122279,0.000151929086 C10.9574854,-0.00901378203 9.94137149,0.396860363 9.1826289,1.13035725 L7.79885795,2.50751106 M9.60902875,7.19462944 C9.26354315,6.7322296 8.82274331,6.34971544 8.31657205,6.07280125 C7.81028651,5.79600135 7.25051528,5.63137284 6.67520119,5.59012714 C6.09988711,5.54887001 5.52234445,5.63197855 4.98188749,5.83382991 C4.44143054,6.03554412 3.95065356,6.35142973 3.54284799,6.75977245 L1.12922597,9.17577161 C0.39646051,9.9353142 -0.00901363533,10.9524567 0.000152075786,12.0082278 C0.0093177869,13.0639988 0.432380498,14.0739413 1.17823167,14.8205697 C1.92407141,15.567198 2.9330082,15.9906264 3.98775069,15.9998835 C5.04249319,16.0090264 6.05862998,15.603198 6.81737257,14.8695982 L8.19314352,13.4924558" id="Shape"></path>
                            </g>
                        </g>
                    </g>
                </g>
            </g>
        </g>
    </g>
</svg>