<?xml version="1.0" encoding="UTF-8"?>
<svg width="12px" height="18px" viewBox="0 0 12 18" version="1.1" xmlns="http://www.w3.org/2000/svg" xmlns:xlink="http://www.w3.org/1999/xlink">
    <title>Combined Shape</title>
    <g id="--Чат" stroke="none" stroke-width="1" fill="none" fill-rule="evenodd">
        <g id="Чат---огистика-Copy-44" transform="translate(-1666, -3274)" fill="#FFFFFF">
            <g id="Group-27" transform="translate(638, 3148)">
                <g id="Group-16-Copy" transform="translate(0, 90)">
                    <g id="Vector-4" transform="translate(1014, 25)">
                        <g id="Group-3" transform="translate(20, 20) rotate(-270) translate(-20, -20)translate(0, 0)">
                            <path d="M14.7598909,19.593759 C15.5061318,19.593759 15.3817928,20.4777153 15.4245215,20.773635 C15.6212128,22.1359528 16.463634,23.3992689 17.6884188,24.0097525 C17.7769343,24.0538623 17.8322848,24.065986 17.9235131,24.1100119 C18.2887073,24.2862734 18.7008523,24.3871493 19.0995715,24.4430917 C19.5377493,24.5045682 19.8034536,24.5033795 20.2416265,24.4383074 C20.459137,24.4059957 20.554252,24.3904934 20.7438111,24.3368298 L21.2032521,24.1926283 C21.2990674,24.1578702 21.3218597,24.1408389 21.411411,24.0989388 C21.6865508,23.9701854 21.7382366,23.9602567 22.0225506,23.7710626 L22.6829345,23.2241221 C23.1934498,22.7157573 23.5953158,22.0472548 23.788076,21.2774374 C23.9574766,20.6008656 23.8646404,20.5808453 23.9276953,20.1762073 C24.06182,19.3155562 25.1562287,19.4809124 25.1562287,20.1974163 C25.1562287,21.3615385 24.9051339,22.0219323 24.4742264,22.8690786 C24.1689007,23.4693425 23.7984684,23.8585965 23.3375279,24.3146836 C22.6121458,25.0324354 21.2847933,25.6121315 20.2598859,25.6974163 L20.2600537,25.8244647 C20.2601096,25.8503897 20.2601795,25.8786899 20.2602633,25.9093653 L20.260934,26.1219194 C20.2623311,26.5236795 20.2651242,27.1629554 20.2693093,28.0397473 C20.2693163,28.3815346 19.9946223,28.6562287 19.65577,28.6562287 C19.3139058,28.6544873 19.0407196,28.3784907 19.042453,28.0397651 L19.0437311,27.7827061 C19.0475177,27.0331515 19.0500872,26.4781942 19.0514395,26.117834 L19.0521608,25.9064231 C19.0522509,25.8759928 19.052326,25.8479649 19.0523862,25.8223395 L19.0525665,25.6974163 C18.683165,25.6666731 18.2804703,25.5602187 17.9748931,25.4671557 C17.0117878,25.1738698 16.3404837,24.6727605 15.6401578,23.978743 C15.3322871,23.6736393 15.0296989,23.2368623 14.8271234,22.8466514 C14.7817953,22.7593246 14.7498783,22.7279106 14.7067993,22.631607 C14.3628585,21.8624209 14.1562287,21.2137512 14.1562287,20.1974163 C14.1562287,19.8614855 14.4239552,19.593759 14.7598909,19.593759 Z M19.7970613,11.3437713 C20.2657061,11.3636535 20.729019,11.4763029 21.1319899,11.678977 C21.5679876,11.8982435 21.7646048,12.0614491 22.0960225,12.3917767 C22.6198057,12.9138386 23.0434134,13.7314995 23.0434134,14.7645008 L23.0434134,20.1638913 C23.0434134,20.7346105 22.9217922,21.134982 22.7561943,21.5534848 C22.6010037,21.9456933 22.3516698,22.2813725 22.0792427,22.5533655 C20.8413478,23.7892925 18.9976204,23.937859 17.6438849,22.9140318 C17.4632188,22.7774015 17.3794975,22.6983364 17.2163757,22.5366696 C16.7146251,22.0393976 16.269039,21.1557718 16.269039,20.1638913 L16.269039,14.7645008 C16.269039,13.3903405 17.024819,12.2614105 18.2027073,11.6676918 C18.5947334,11.4700783 19.0428202,11.3630222 19.4968949,11.3437713 L19.7970613,11.3437713 Z M19.7698347,12.4447973 L19.5600298,12.4447973 C19.2426488,12.4606121 18.929453,12.5485599 18.6554417,12.7109018 C17.8321424,13.1986487 17.3038808,14.1260781 17.3038808,15.254967 L17.3038808,19.69063 C17.3038808,20.5054716 17.6153286,21.2313807 17.9660332,21.6398955 C18.0800492,21.7727066 18.1385672,21.8376596 18.264846,21.949903 C19.2110558,22.7909891 20.4997514,22.66894 21.3649931,21.6536114 C21.5554093,21.4301659 21.7296842,21.1544015 21.8381566,20.8321975 C21.9539032,20.4883926 22.0389119,20.1594826 22.0389119,19.69063 L22.0389119,15.254967 C22.0389119,14.4063442 21.7428261,13.7346261 21.3767215,13.3057461 C21.1450731,13.0343781 21.0076451,12.9003027 20.7028992,12.7201727 C20.4212378,12.5536735 20.0973997,12.4611307 19.7698347,12.4447973 Z" id="Combined-Shape" transform="translate(19.6562, 20) rotate(-90) translate(-19.6562, -20)"></path>
                        </g>
                    </g>
                </g>
            </g>
        </g>
    </g>
</svg>