<?xml version="1.0" encoding="UTF-8"?>
<svg width="5px" height="20px" viewBox="0 0 5 20" version="1.1" xmlns="http://www.w3.org/2000/svg" xmlns:xlink="http://www.w3.org/1999/xlink">
    <title>Frame 28</title>
    <g id="--Чат" stroke="none" stroke-width="1" fill="none" fill-rule="evenodd">
        <g id="Чат---огистика-Copy-44" transform="translate(-1673, -29)" fill="currentColor">
            <g id="Frame-28" transform="translate(1673, 29)">
                <path d="M2.22222222,4.44444444 C3.44444444,4.44444444 4.44444444,3.44444444 4.44444444,2.22222222 C4.44444444,1 3.44444444,0 2.22222222,0 C1,0 0,1 0,2.22222222 C0,3.44444444 1,4.44444444 2.22222222,4.44444444 Z M2.22222222,7.77777778 C1,7.77777778 0,8.77777778 0,10 C0,11.2222222 1,12.2222222 2.22222222,12.2222222 C3.44444444,12.2222222 4.44444444,11.2222222 4.44444444,10 C4.44444444,8.77777778 3.44444444,7.77777778 2.22222222,7.77777778 Z M2.22222222,15.5555556 C1,15.5555556 0,16.5555556 0,17.7777778 C0,19 1,20 2.22222222,20 C3.44444444,20 4.44444444,19 4.44444444,17.7777778 C4.44444444,16.5555556 3.44444444,15.5555556 2.22222222,15.5555556 Z" id="Shape"></path>
            </g>
        </g>
    </g>
</svg>
