<?xml version="1.0" encoding="utf-8"?>
<!-- Generator: Adobe Illustrator 26.0.2, SVG Export Plug-In . SVG Version: 6.00 Build 0)  -->
<svg width="18px" height="12px" version="1.1" id="Layer_1" xmlns="http://www.w3.org/2000/svg" xmlns:xlink="http://www.w3.org/1999/xlink" x="0px" y="0px"
	 viewBox="0 0 18 12" style="enable-background:new 0 0 18 12;" xml:space="preserve">
<g id="_x2D_-Чат">
	<g id="Чат---Логистика-Copy-43" transform="translate(-605, -410)" fill="currentColor">
		<g id="Group-12" transform="translate(244, 25)">
			<g id="Group-17-Copy-5" transform="translate(0, 337)">
				<g id="Group-9" transform="translate(15, 10)">
					<g id="Frame-18" transform="translate(346, 38)">
						<path d="M7.2,0.1L3.7,3.1C3.6,3.1,3.5,3.2,3.4,3.2H0.5C0.2,3.2,0,3.4,0,3.7v4.6c0,0.3,0.2,0.5,0.5,0.5h2.9
							c0.1,0,0.2,0,0.3,0.1l3.5,2.9c0.3,0.3,0.8,0,0.8-0.4V0.5C8,0.1,7.5-0.2,7.2,0.1z"/>
					</g>
				</g>
			</g>
		</g>
	</g>
</g>
</svg>
