<?xml version="1.0" encoding="UTF-8"?>
<svg width="18px" height="12px" viewBox="0 0 18 12" version="1.1" xmlns="http://www.w3.org/2000/svg" xmlns:xlink="http://www.w3.org/1999/xlink">
    <title>Shape</title>
    <g id="--Чат" stroke="none" stroke-width="1" fill="none" fill-rule="evenodd">
        <g id="Чат---Логистика-Copy-43" transform="translate(-605, -410)" fill="#A6B7D4">
            <g id="Group-12" transform="translate(244, 25)">
                <g id="Group-17-Copy-5" transform="translate(0, 337)">
                    <g id="Group-9" transform="translate(15, 10)">
                        <g id="Frame-18" transform="translate(346, 38)">
                            <path d="M7.99920261,0.543991742 C7.99920261,0.088701553 7.50168191,-0.164408778 7.16582261,0.119998274 L3.69570393,3.05855622 C3.6047476,3.13557091 3.49174466,3.17753154 3.37526391,3.17753154 L0.512950246,3.17753154 C0.229647825,3.17753154 0,3.42062953 0,3.72050033 L0,8.27947261 C0,8.57929997 0.229647825,8.8224414 0.512950246,8.8224414 L3.37526391,8.8224414 C3.49174466,8.8224414 3.6047476,8.86435859 3.69570393,8.94146016 L7.16582261,11.8800072 C7.50168191,12.1644143 7.99920261,11.9112822 7.99920261,11.4559486 L7.99920261,0.543991742 Z M17.3200899,2.60163712 C17.6205761,2.91969738 17.6205761,3.43537656 17.3200899,3.75344768 L15.1977069,5.99998104 L17.3200899,8.2465687 C17.6205761,8.56463982 17.6205761,9.08024298 17.3200899,9.3983141 C17.0196036,9.71638521 16.5324035,9.71638521 16.2319172,9.3983141 L14.1095343,7.15183503 L11.9872539,9.3983141 C11.6867677,9.71638521 11.1995675,9.71638521 10.8990813,9.3983141 C10.598595,9.08024298 10.598595,8.56463982 10.8990813,8.2465687 L13.0214642,5.99998104 L10.8990813,3.75344768 C10.598595,3.43537656 10.598595,2.91969738 10.8990813,2.60163712 C11.1995675,2.28356601 11.6867677,2.28356601 11.9872539,2.60163712 L14.1095343,4.84817049 L16.2319172,2.60163712 C16.5324035,2.28356601 17.0196036,2.28356601 17.3200899,2.60163712 Z" id="Shape"></path>
                        </g>
                    </g>
                </g>
            </g>
        </g>
    </g>
</svg>