<?xml version="1.0" encoding="UTF-8"?>
<svg width="18px" height="18px" viewBox="0 0 18 18" version="1.1" xmlns="http://www.w3.org/2000/svg" xmlns:xlink="http://www.w3.org/1999/xlink">
    <title>Frame 34162-2</title>
    <g id="--Чат" stroke="none" stroke-width="1" fill="none" fill-rule="evenodd" stroke-linecap="round" stroke-linejoin="round">
        <g id="Чат---Логистика-Copy-47" transform="translate(-44, -562)" stroke="#A6B7D4" stroke-width="1.5">
            <g id="Group-14-Copy" transform="translate(20, 128)">
                <g id="Group-31" transform="translate(0, 300)">
                    <g id="Group-35" transform="translate(0, 74)">
                        <g id="Group-24" transform="translate(25, 25)">
                            <g id="Frame-34162-2" transform="translate(0, 36)">
                                <path d="M1.77778,16 L14.2222,16 C15.2041,16 16,15.2041 16,14.2222 L16,1.77778 C16,0.79594 15.2041,0 14.2222,0 L1.77778,0 C0.79594,0 0,0.79594 0,1.77778 L0,14.2222 C0,15.2041 0.79594,16 1.77778,16 Z M1.77778,16 L11.5556,6.2222 L16,10.6667 M6.2222,4.88889 C6.2222,5.62527 5.62527,6.2222 4.88889,6.2222 C4.15251,6.2222 3.55556,5.62527 3.55556,4.88889 C3.55556,4.15251 4.15251,3.55556 4.88889,3.55556 C5.62527,3.55556 6.2222,4.15251 6.2222,4.88889 Z" id="Shape"></path>
                            </g>
                        </g>
                    </g>
                </g>
            </g>
        </g>
    </g>
</svg>