<?xml version="1.0" encoding="UTF-8"?>
<svg width="15px" height="15px" viewBox="0 0 15 15" version="1.1" xmlns="http://www.w3.org/2000/svg" xmlns:xlink="http://www.w3.org/1999/xlink">
    <title>Combined Shape</title>
    <g id="--Чат" stroke="none" stroke-width="1" fill="none" fill-rule="evenodd">
        <g id="Чат---огистика-Copy-44" transform="translate(-608, -257)" fill="currentColor">
            <g id="Group-12" transform="translate(244, 25)">
                <g id="Group-17-Copy-2" transform="translate(0, 116)">
                    <g id="Group-17-Copy-3" transform="translate(15, 81)">
                        <g id="Vector" transform="translate(292.8709, 5)">
                            <path d="M61.7275611,38.7398705 L62.3910016,39.4046038 C62.3016272,39.5281637 62.1011649,39.702835 61.9897654,39.814918 C61.8506895,39.9548459 61.7279464,40.0775136 61.5889369,40.2173978 L58.4277661,43.3907746 C58.0175595,43.8020201 58.0198388,43.7687714 57.5966942,44.1434891 L56.1290765,45 C56.1979306,44.8844815 56.9548846,43.5820721 57.0100129,43.51299 C57.2000341,43.2748567 57.3475356,43.1285877 57.5687311,42.9080986 L57.6154146,42.8614115 C57.8570217,42.6192668 58.5980825,41.8710891 59.3860451,41.0772983 L59.7514025,40.7093711 C60.2385917,40.2189539 60.7171762,39.7380878 61.081691,39.3740715 L61.3320411,39.1246451 C61.5577074,38.9004812 61.7043784,38.7571341 61.7275611,38.7398705 Z M61.5708045,35.3751203 C61.9499766,35.4569762 61.9302055,35.4489463 62.1263154,35.6455457 L65.4936066,39.025741 C65.5741297,39.1066472 65.6421867,39.1381552 65.6823932,39.2727321 C65.79021,39.6335998 65.8549089,40.0101687 65.8344368,40.3943926 C65.8056449,40.9348066 65.6196094,41.312431 65.3447471,41.5910772 C65.2336248,41.5384206 64.0058683,40.2705177 63.889814,40.1527893 L59.6397588,35.8881034 C59.590339,35.8369368 59.5978434,35.8533485 59.5707741,35.7949522 C59.8492923,35.5145975 60.2406212,35.3267085 60.7860439,35.3023429 C61.0543479,35.2903624 61.3228741,35.3215921 61.5708045,35.3751203 Z M66.4490962,32.2330515 L68.8907915,34.6886685 L65.6964009,38.5835508 C65.6647796,38.5656718 65.4520178,38.3596025 65.1569973,38.067053 L64.7235716,37.6346685 C64.6461033,37.5570396 64.5667431,37.4773724 64.4865761,37.396783 L64.1842874,37.0924301 C63.6309292,36.5345183 63.1035487,35.9989649 62.9547576,35.8484666 C62.8652985,35.7579783 62.6237523,35.5413293 62.5663769,35.4420362 C62.6738547,35.3816509 63.4307397,34.7328952 63.548386,34.6358785 C64.0997049,34.1811997 64.9384576,33.4484817 65.4768478,33.0300708 C65.6248758,32.9150283 66.3618132,32.2710326 66.4490962,32.2330515 Z M66.8086918,30 L71.1290765,34.3343866 C71.0954145,34.3602378 71.0911148,34.3787236 71.0498706,34.4148421 C71.0168317,34.4437631 70.9862026,34.4618718 70.9411833,34.491393 C70.8692641,34.5385584 70.8021807,34.5746838 70.7145335,34.6085258 C70.5391018,34.676265 70.3353294,34.70881 70.1323335,34.7091067 C69.9648574,34.7093527 69.7990031,34.6896803 69.6418261,34.6567306 C69.3961634,34.6052283 69.4092846,34.6063619 69.276231,34.4697707 L67.6271855,32.8138519 C67.4806945,32.6665311 66.5768216,31.7877776 66.5362829,31.7006145 C66.3383403,31.2750268 66.4099411,30.1992117 66.8086918,30 Z" id="Combined-Shape"></path>
                        </g>
                    </g>
                </g>
            </g>
        </g>
    </g>
</svg>
