<?xml version="1.0" encoding="UTF-8"?>
<svg width="18px" height="18px" viewBox="0 0 18 18" version="1.1" xmlns="http://www.w3.org/2000/svg" xmlns:xlink="http://www.w3.org/1999/xlink">
    <title>Path</title>
    <g id="--Чат" stroke="none" stroke-width="1" fill="none" fill-rule="evenodd">
        <g id="Чат---огистика-Copy-44" transform="translate(-1664, -3184)" fill="currentColor" fill-rule="nonzero">
            <g id="Group-27" transform="translate(638, 3148)">
                <g id="Vector-4" transform="translate(1014, 25)">
                    <path d="M21.752312,20.1818017 L14.8016646,21.3408219 C14.7217536,21.3541419 14.6467656,21.3882519 14.5842336,21.4398219 C14.5217016,21.491302 14.4738396,21.558352 14.4454626,21.634222 L12.0489179,28.0542832 C11.8200604,28.6448634 12.4374218,29.2078135 13.0040313,28.9244934 L29.6146235,20.6192018 C29.7296436,20.5616918 29.8264836,20.4733118 29.8940736,20.3639617 C29.9617536,20.2546117 29.9975736,20.1285217 29.9975736,19.9999657 C29.9975736,19.8713646 29.9617536,19.7453196 29.8940736,19.6359426 C29.8264836,19.5265746 29.7296436,19.4382036 29.6146235,19.3807565 L13.0040313,11.0754575 C12.4374218,10.7921548 11.8200604,11.3559923 12.0489179,11.9456661 L14.4463806,18.3656643 C14.4746316,18.4417144 14.5224396,18.5089804 14.5849716,18.5606584 C14.6475126,18.6123454 14.7225726,18.6466264 14.8025826,18.6600454 L21.753212,19.8181746 C21.795962,19.8256626 21.834752,19.8480006 21.862652,19.8812466 C21.890642,19.9145017 21.905942,19.9565407 21.905942,19.9999657 C21.905942,20.0433817 21.890642,20.0854117 21.862652,20.1187117 C21.834752,20.1519217 21.795962,20.1742417 21.753212,20.1818017 L21.752312,20.1818017 Z" id="Path"></path>
                </g>
            </g>
        </g>
    </g>
</svg>
