<?xml version="1.0" encoding="UTF-8"?>
<svg width="20px" height="18px" viewBox="0 0 20 18" version="1.1" xmlns="http://www.w3.org/2000/svg" xmlns:xlink="http://www.w3.org/1999/xlink">
    <title>Group 24</title>
    <g id="--Чат" stroke="none" stroke-width="1" fill="none" fill-rule="evenodd">
        <g id="Чат---Логистика-Copy-47" transform="translate(-44, -526)">
            <g id="Group-14-Copy" transform="translate(20, 128)">
                <g id="Group-31" transform="translate(0, 300)">
                    <g id="Group-35" transform="translate(0, 74)">
                        <g id="Group-24" transform="translate(25, 25)">
                            <path d="M9.07285992,0 C14.0836621,0 18.1457198,3.40018891 18.1457198,7.5945345 C18.1457198,11.7888801 14.0836621,15.189069 9.07285992,15.189069 C7.62941896,15.189069 6.26470665,14.9069148 5.05314443,14.4049016 C4.41488786,14.7673346 3.89022067,15.0286806 3.47841275,15.189069 C2.83034255,15.4414753 1.92209033,15.654045 0.753656095,15.826778 C1.37029928,14.7697318 1.79543861,13.9774266 2.0290741,13.4498626 C2.14096956,13.1971955 2.23916788,12.936994 2.32366907,12.6692583 C0.878618281,11.3241665 0,9.54523808 0,7.5945345 C0,3.40018891 4.06205775,0 9.07285992,0 Z" id="Combined-Shape" stroke="#979797" fill="#D8D8D8"></path>
                            <path d="M3.82625402,3.36246566 L14.2614923,3.36246566 L14.2614923,4.52193657 L3.82625402,4.52193657 Z M3.82625402,5.68140749 L14.2614923,5.68140749 L14.2614923,6.8408784 L3.82625402,6.8408784 Z M3.82625402,7.94237577 L14.2614923,7.94237577 L14.2614923,9.10184669 L3.82625402,9.10184669 Z M3.82625402,10.3192912 L10.1453705,10.3192912 L10.1453705,11.4787621 L3.82625402,11.4787621 Z" id="Combined-Shape" fill="#000000"></path>
                            <g id="Combined-Shape">
                                <path d="M9.07285992,0 C14.0836621,0 18.1457198,3.40018891 18.1457198,7.5945345 C18.1457198,11.7888801 14.0836621,15.189069 9.07285992,15.189069 C7.62941896,15.189069 6.26470665,14.9069148 5.05314443,14.4049016 C4.41488786,14.7673346 3.89022067,15.0286806 3.47841275,15.189069 C2.83034255,15.4414753 1.92209033,15.654045 0.753656095,15.826778 C1.37029928,14.7697318 1.79543861,13.9774266 2.0290741,13.4498626 C2.14096956,13.1971955 2.23916788,12.936994 2.32366907,12.6692583 C0.878618281,11.3241665 0,9.54523808 0,7.5945345 C0,3.40018891 4.06205775,0 9.07285992,0 Z" stroke="#A6B7D4" stroke-width="1.3" fill="#F7F8FA"></path>
                                <path d="M3.82625402,4.05814821 L14.2614923,4.05814821 L14.2614923,4.92775139 L3.82625402,4.92775139 Z M3.82625402,6.08722231 L14.2614923,6.08722231 L14.2614923,6.95682549 L3.82625402,6.95682549 Z M3.82625402,8.11629641 L14.2614923,8.11629641 L14.2614923,8.9858996 L3.82625402,8.9858996 Z M3.82625402,10.1453705 L10.1453705,10.1453705 L10.1453705,11.0149737 L3.82625402,11.0149737 Z" fill="#A6B7D4"></path>
                            </g>
                        </g>
                    </g>
                </g>
            </g>
        </g>
    </g>
</svg>