<?xml version="1.0" encoding="UTF-8"?>
<svg width="21px" height="18px" viewBox="0 0 21 18" version="1.1" xmlns="http://www.w3.org/2000/svg" xmlns:xlink="http://www.w3.org/1999/xlink">
    <title>Frame 34162</title>
    <g id="--Чат" stroke="none" stroke-width="1" fill="none" fill-rule="evenodd" stroke-linecap="round" stroke-linejoin="round">
        <g id="Чат---Логистика-Copy-47" transform="translate(-44, -598)" stroke-width="1.5">
            <g id="Group-14-Copy" transform="translate(20, 128)">
                <g id="Group-31" transform="translate(0, 300)">
                    <g id="Group-35" transform="translate(0, 74)">
                        <g id="Group-24" transform="translate(25, 25)">
                            <g id="Frame-34162" transform="translate(0, 72)">
                                <path d="M14.4733556,9.99727222 L18.03195,12.5022111 C18.1367667,12.5488667 18.2516111,12.5685 18.3659278,12.5594222 C18.4802444,12.55045 18.59055,12.5129778 18.6867111,12.4504889 C18.7828722,12.388 18.8619333,12.3023944 18.9166111,12.2015889 C18.9713944,12.1007833 19,11.9879444 19,11.8732056 L19,3.57964222 C19,3.46494556 18.9713944,3.35205389 18.9166111,3.25124833 C18.8619333,3.15044278 18.7828722,3.06490056 18.6867111,3.00240111 C18.59055,2.93991222 18.4802444,2.90242944 18.3659278,2.89339389 C18.2516111,2.88434778 18.1367667,2.90401278 18.03195,2.95061556 L14.4733556,5.45553333 C14.3831056,5.51907778 14.3094278,5.60331111 14.2586556,5.70126667 C14.2077778,5.79922222 14.1811778,5.90794444 14.1811778,6.01835556 L14.1811778,9.43455556 C14.1811778,9.54486111 14.2077778,9.65358333 14.2586556,9.75153889 C14.3094278,9.84949444 14.3831056,9.93383333 14.4733556,9.99727222 Z" id="Path" stroke="currentColor"></path>
                                <path d="M11.2228778,15.4202944 L2.95823667,15.4202944 C2.17434944,15.4178667 1.42322667,15.0871611 0.868933333,14.5002722 C0.31464,13.9133833 0.00224833333,13.1180222 0,12.2880389 L0,3.132245 C0.00224833333,2.30225111 0.31464,1.50694278 0.868933333,0.920043333 C1.42322667,0.333154444 2.17434944,0.00238555556 2.95823667,0 L11.2502167,0 C12.0267889,0.00254388889 12.7709556,0.330315 13.3200556,0.911757222 C13.8691556,1.49318889 14.17875,2.28105556 14.1811778,3.10333333 L14.1811778,12.2880389 C14.1788556,13.1180222 13.8665167,13.9133833 13.3122444,14.5002722 C12.7579722,15.0871611 12.0068389,15.4178667 11.2228778,15.4202944 Z" id="Path" stroke="currentColor"></path>
                            </g>
                        </g>
                    </g>
                </g>
            </g>
        </g>
    </g>
</svg>
