<?xml version="1.0" encoding="UTF-8"?>
<svg width="18px" height="18px" viewBox="0 0 18 18" version="1.1" xmlns="http://www.w3.org/2000/svg" xmlns:xlink="http://www.w3.org/1999/xlink">
    <title>Video</title>
    <g id="--Чат" stroke="none" stroke-width="1" fill="none" fill-rule="evenodd" stroke-linecap="round" stroke-linejoin="round">
        <g id="Чат---Логистика-Copy-47" transform="translate(-44, -670)" stroke="#A6B7D4" stroke-width="1.5">
            <g id="Group-14-Copy" transform="translate(20, 128)">
                <g id="Group-31" transform="translate(0, 300)">
                    <g id="Group-35" transform="translate(0, 74)">
                        <g id="Group-24" transform="translate(25, 25)">
                            <g id="Video" transform="translate(0, 144)">
                                <path d="M5.33333714,12.238496 L1.77778286,12.238496 C1.30628571,12.238496 0.854091429,12.4258102 0.520697143,12.7591817 C0.187302857,13.0925531 0,13.5447817 0,14.0162102 C0,14.4877531 0.187302857,14.9399817 0.520697143,15.2733531 C0.854091429,15.6067245 1.30628571,15.7940388 1.77778286,15.7940388 L3.55555429,15.7940388 C4.02705143,15.7940388 4.47923429,15.6067245 4.81262857,15.2733531 C5.14603429,14.9399817 5.33333714,14.4877531 5.33333714,14.0162102 L5.33333714,12.238496 Z M5.33333714,12.238496 L5.33333714,2.53995882 C5.33333714,1.98128453 5.73723429,1.50449596 6.28830857,1.41265596 L14.6692571,0.0158331023 C15.3658286,-0.100269755 16,0.436918817 16,1.14313596 L16,10.4606674 M16,10.4606674 L12.4444571,10.4606674 C11.9729143,10.4606674 11.5208,10.6479817 11.1873143,10.9813531 C10.8539429,11.3148388 10.6666286,11.7669531 10.6666286,12.238496 C10.6666286,12.7099245 10.8539429,13.1621531 11.1873143,13.4955245 C11.5208,13.8290102 11.9729143,14.0162102 12.4444571,14.0162102 L14.2221714,14.0162102 C14.6937143,14.0162102 15.1459429,13.8290102 15.4793143,13.4955245 C15.8126857,13.1621531 16,12.7099245 16,12.238496 L16,10.4606674 Z" id="Shape"></path>
                            </g>
                        </g>
                    </g>
                </g>
            </g>
        </g>
    </g>
</svg>