<?xml version="1.0" encoding="UTF-8"?>
<svg width="28px" height="28px" viewBox="0 0 28 28" version="1.1" xmlns="http://www.w3.org/2000/svg" xmlns:xlink="http://www.w3.org/1999/xlink">
    <title>WORD</title>
    <g id="--Чат" stroke="none" stroke-width="1" fill="none" fill-rule="evenodd">
        <g id="Чат---огистика-Copy-44" transform="translate(-832, -3541)" fill="#2C5897">
            <g id="Group-27" transform="translate(638, 3148)">
                <g id="Group-16-Copy-4" transform="translate(0, 360)">
                    <g id="Group-33-Copy-2" transform="translate(175, 14.8934)">
                        <g id="Group-32" transform="translate(1, 0)">
                            <g id="Bitmap" transform="translate(0, 0.1066)">
                                <path d="M34.2875772,18 L34.2515598,45.9999374 L18.1828575,43.0867577 L18,21.142715 L34.2875772,18 Z M34.9610943,21.1801435 L43.9950162,21.2163089 C45.0959148,21.2207161 45.9862522,22.1140104 45.9870093,23.2149175 L45.9990147,40.6726625 C45.9997715,41.7732216 45.1112051,42.6675936 44.0106644,42.6740039 L34.9334633,42.7268761 L34.936,40.098 L43.7145122,40.0980179 L43.7145122,38.4693001 L34.938,38.469 L34.94,37.166 L43.7145122,37.166326 L43.7145122,35.5376083 L34.942,35.537 L34.944,34.234 L43.7145122,34.2346341 L43.7145122,32.6059164 L34.946,32.605 L34.948,31.302 L43.7145122,31.3029422 L43.7145122,29.6742245 L34.95,29.674 L34.952,28.045 L43.7145122,28.0455068 L43.7145122,26.4167891 L34.954,26.416 L34.956,25.113 L43.7145122,25.1138149 L43.7145122,23.4850972 L34.958,23.485 L34.9610943,21.1801435 Z M32.086749,26.2563747 L30.0607547,26.3563509 L28.7023094,33.8270573 L27.1197849,26.624475 L25.1569715,26.624475 L23.6381064,33.7222738 L22.4293471,26.7933149 L20.5248076,26.7933149 L22.5213695,36.4658228 L24.4180214,36.5059569 L26.0300963,29.483879 L27.5863641,36.6724243 L29.8077662,36.7459705 L32.086749,26.2563747 Z" id="WORD"></path>
                            </g>
                        </g>
                    </g>
                </g>
            </g>
        </g>
    </g>
</svg>